Coordinates
version=1
nRows=9
nColumns=24
inDegrees=yes

Units are S.I. units (second, meters, Newtons, ...)
Angles are in degrees.

endheader
time	pelvis_tilt	pelvis_list	pelvis_rotation	pelvis_tx	pelvis_ty	pelvis_tz	hip_flexion_r	hip_adduction_r	hip_rotation_r	knee_angle_r	ankle_angle_r	subtalar_angle_r	mtp_angle_r	hip_flexion_l	hip_adduction_l	hip_rotation_l	knee_angle_l	ankle_angle_l	subtalar_angle_l	mtp_angle_l	lumbar_extension	lumbar_bending	lumbar_rotation
      0.01000000	     59.36848865	    -15.27576589	      0.17274076	      0.52561382	      0.95063283	     -0.22854841	     23.36508614	     -8.16853908	    -17.55250463	    -70.11580123	     -9.53572452	      0.00000000	      0.00000000	     25.34437556	    -13.41181667	     19.53241728	    -17.17759506	    -36.64082864	      0.00000000	      0.00000000	      0.00000000	      0.00000000	      0.00000000
      0.02000000	     59.33746433	    -15.26691922	      0.19725512	      0.52564659	      0.95076173	     -0.22864958	     23.36210363	     -8.17697143	    -17.63957511	    -70.06271926	     -9.12503053	      0.00000000	      0.00000000	     25.37627490	    -13.40078619	     19.49276108	    -17.16056819	    -36.62496407	      0.00000000	      0.00000000	      0.00000000	      0.00000000	      0.00000000
      0.03000000	     59.31844031	    -15.26255438	      0.21224221	      0.52563454	      0.95082628	     -0.22870183	     23.40039027	     -8.16014488	    -17.64856341	    -70.05308339	     -9.08956975	      0.00000000	      0.00000000	     25.40007526	    -13.39309718	     19.48429746	    -17.15670253	    -36.62381087	      0.00000000	      0.00000000	      0.00000000	      0.00000000	      0.00000000
      0.04000000	     59.30462695	    -15.26049341	      0.21585311	      0.52560677	      0.95082989	     -0.22870107	     23.46468210	     -8.13079794	    -17.60766459	    -70.06827485	     -9.31810290	      0.00000000	      0.00000000	     25.42076586	    -13.38991702	     19.49438057	    -17.16202846	    -36.63427259	      0.00000000	      0.00000000	      0.00000000	      0.00000000	      0.00000000
      0.05000000	     59.29076289	    -15.25896949	      0.20879702	      0.52558735	      0.95079001	     -0.22866904	     23.54105706	     -8.09992338	    -17.54660901	    -70.08976641	     -9.68621318	      0.00000000	      0.00000000	     25.44216936	    -13.39099240	     19.50959585	    -17.17229082	    -36.65266460	      0.00000000	      0.00000000	      0.00000000	      0.00000000	      0.00000000
      0.06000000	     59.27495876	    -15.25773094	      0.19509466	      0.52557858	      0.95073891	     -0.22863906	     23.62110177	     -8.07295568	    -17.48774503	    -70.10558855	    -10.08751725	      0.00000000	      0.00000000	     25.46561331	    -13.39430387	     19.51998487	    -17.18391585	    -36.67529443	      0.00000000	      0.00000000	      0.00000000	      0.00000000	      0.00000000
      0.07000000	     59.25770915	    -15.25807217	      0.18027038	      0.52556990	      0.95070081	     -0.22861621	     23.70123091	     -8.05028586	    -17.44229706	    -70.11256323	    -10.44944318	      0.00000000	      0.00000000	     25.49061082	    -13.39723361	     19.52124399	    -17.19427036	    -36.69862580	      0.00000000	      0.00000000	      0.00000000	      0.00000000	      0.00000000
      0.08000000	     59.24011305	    -15.26121640	      0.16877230	      0.52555826	      0.95067833	     -0.22858219	     23.78048068	     -8.02956593	    -17.41146708	    -70.11464786	    -10.73597642	      0.00000000	      0.00000000	     25.51618199	    -13.39826800	     19.51482800	    -17.20169532	    -36.71929006	      0.00000000	      0.00000000	      0.00000000	      0.00000000	      0.00000000
      0.09000000	     59.22286225	    -15.26659359	      0.16249575	      0.52554708	      0.95066530	     -0.22854576	     23.85937928	     -8.00786317	    -17.39055153	    -70.11911483	    -10.94140343	      0.00000000	      0.00000000	     25.54165999	    -13.39786475	     19.50620044	    -17.20561370	    -36.73426739	      0.00000000	      0.00000000	      0.00000000	      0.00000000	      0.00000000
